PathFileType	4	(X/Y/Z)	/Users/itak/Documents/Research/Walk-IL/dataset/trc/00008_00004.trc
DataRate	CameraRate	NumFrames	NumMarkers	Units	OrigDataRate	OrigDataStartFrame	OrigNumFrames
100.000000	100.000000	4	53	mm	100.000000	0	620
Frame#	Time	RPSI			LPSI			L3			STRN			T10			C7			CLAV			RBAK			LBAK			LSHO			LUPA			LAEL			LAOL			LWTS			LWPS			LFRA			LIFD			LHPS			LHTS			RSHO			RUPA			RAEL			RAOL			RWTS			RWPS			RFRA			RIFD			RHTS			RHPS			RBHD			LFHD			RFHD			LBHD			LHIP			RHIP			RASI			LASI			LKNE			LTHI			LANK			LTIP			LTOE			LMT1			LMT5			LHEE			RKNE			RTHI			RANK			RTIP			RTOE			RMT1			RMT5			RHEE			
		X1	Y1	Z1	X2	Y2	Z2	X3	Y3	Z3	X4	Y4	Z4	X5	Y5	Z5	X6	Y6	Z6	X7	Y7	Z7	X8	Y8	Z8	X9	Y9	Z9	X10	Y10	Z10	X11	Y11	Z11	X12	Y12	Z12	X13	Y13	Z13	X14	Y14	Z14	X15	Y15	Z15	X16	Y16	Z16	X17	Y17	Z17	X18	Y18	Z18	X19	Y19	Z19	X20	Y20	Z20	X21	Y21	Z21	X22	Y22	Z22	X23	Y23	Z23	X24	Y24	Z24	X25	Y25	Z25	X26	Y26	Z26	X27	Y27	Z27	X28	Y28	Z28	X29	Y29	Z29	X30	Y30	Z30	X31	Y31	Z31	X32	Y32	Z32	X33	Y33	Z33	X34	Y34	Z34	X35	Y35	Z35	X36	Y36	Z36	X37	Y37	Z37	X38	Y38	Z38	X39	Y39	Z39	X40	Y40	Z40	X41	Y41	Z41	X42	Y42	Z42	X43	Y43	Z43	X44	Y44	Z44	X45	Y45	Z45	X46	Y46	Z46	X47	Y47	Z47	X48	Y48	Z48	X49	Y49	Z49	X50	Y50	Z50	X51	Y51	Z51	X52	Y52	Z52	X53	Y53	Z53	

1	0	-1238.209594726562	1069.859252929688	-172.5697174072266	-1247.016479492188	1064.453125	-336.0580444335938	-1249.673583984375	1127.04248046875	-261.4438781738281	-1030.587890625	1328.877075195312	-265.7888488769531	-1278.1572265625	1267.996826171875	-260.0337524414062	-1245.125366210938	1537.7861328125	-273.3896789550781	-1079.60400390625	1452.890991210938	-270.392578125	-1285.551635742188	1399.85498046875	-190.5631561279297	-1261.7880859375	1494.943603515625	-370.3042297363281	-1159.987426757812	1505.811645507812	-446.2510375976562	-1185.633178710938	1379.421752929688	-523.4814453125	-1178.312377929688	1160.200439453125	-543.1156616210938	-1237.162963867188	1149.018310546875	-455.0471496582031	-1091.744384765625	908.5416870117188	-480.280029296875	-1167.696533203125	893.2398681640625	-524.1353759765625	-1164.322265625	1044.302368164062	-546.3153076171875	-1065.10498046875	725.6852416992188	-456.5793762207031	-1133.435791015625	803.9845581054688	-520.7413940429688	-1067.64501953125	816.3692626953125	-491.52197265625	-1160.698120117188	1530.442138671875	-100.512092590332	-1168.590942382812	1458.882202148438	-26.37170791625977	-1192.79052734375	1188.677124023438	-2.631662845611572	-1197.947021484375	1160.7919921875	-99.25259399414062	-1059.085815429688	931.85693359375	-36.86510848999023	-1122.91357421875	916.8805541992188	29.41390991210938	-1176.9716796875	1113.705810546875	12.21330642700195	-1039.705810546875	747.1676635742188	-51.57972717285156	-1024.225830078125	822.5370483398438	-21.63560104370117	-1080.375244140625	817.3673095703125	28.70062065124512	-1158.051147460938	1717.425903320312	-177.6822357177734	-1046.98291015625	1745.156372070312	-356.1760864257812	-1007.518615722656	1744.253540039062	-266.0502624511719	-1221.138305664062	1722.724609375	-307.1725769042969	-1155.514892578125	964.459228515625	-448.3624877929688	-1119.54150390625	963.858154296875	-75.66575622558594	-1021.901062011719	996.6235961914062	-154.0705261230469	-1036.12890625	1012.532165527344	-388.9102783203125	-1118.375610351562	517.5794067382812	-397.2152099609375	-1138.892333984375	654.7645263671875	-433.4546508789062	-1214.004028320312	40.40378952026367	-391.5564270019531	-1199.067993164062	288.53759765625	-413.2022705078125	-994.4443969726562	41.07924652099609	-322.5078125	-1054.550903320312	50.69921875	-306.3966369628906	-1089.305786132812	39.4854850769043	-408.1905212402344	-1284.10595703125	47.92856979370117	-340.4453125	-1126.7861328125	525.104248046875	-124.0176467895508	-1101.1083984375	794.7722778320312	-80.03900146484375	-1246.107055664062	45.51916885375977	-149.7860870361328	-1157.561401367188	404.5817260742188	-123.7094650268555	-1013.481018066406	45.52317428588867	-183.6614227294922	-1075.167846679688	50.83806228637695	-215.7610626220703	-1097.302124023438	44.96445083618164	-120.8438720703125	-1299.952270507812	47.4236946105957	-197.7210845947266	
2	0.01	-1238.241088867188	1069.8994140625	-172.5657501220703	-1247.010986328125	1064.488159179688	-336.0600891113281	-1249.689086914062	1127.095092773438	-261.4573669433594	-1030.546630859375	1328.878662109375	-265.7600402832031	-1278.102905273438	1268.045776367188	-260.0379638671875	-1245.019653320312	1537.826416015625	-273.4172973632812	-1079.51416015625	1452.91015625	-270.3684387207031	-1285.48681640625	1399.90283203125	-190.5705718994141	-1261.67919921875	1495.015258789062	-370.3080139160156	-1159.900146484375	1505.83544921875	-446.2350463867188	-1185.524047851562	1379.462646484375	-523.480224609375	-1178.2587890625	1160.231201171875	-543.126953125	-1237.087280273438	1149.05712890625	-455.0639038085938	-1091.682739257812	908.5708618164062	-480.259033203125	-1167.596557617188	893.2651977539062	-524.1331176757812	-1164.241943359375	1044.344604492188	-546.3182983398438	-1065.02783203125	725.71240234375	-456.5501403808594	-1133.359985351562	804.0142211914062	-520.7296752929688	-1067.521362304688	816.4366455078125	-491.5010070800781	-1160.636474609375	1530.472778320312	-100.5077362060547	-1168.55908203125	1458.903076171875	-26.36930656433105	-1192.76123046875	1188.702270507812	-2.628315448760986	-1197.901123046875	1160.81396484375	-99.24851989746094	-1059.071899414062	931.8836059570312	-36.86494445800781	-1122.865966796875	916.9047241210938	29.42190361022949	-1176.951782226562	1113.731323242188	12.21475315093994	-1039.602172851562	747.1865234375	-51.54811477661133	-1024.05810546875	822.6279907226562	-21.60451316833496	-1080.308227539062	817.3910522460938	28.73282814025879	-1157.985717773438	1717.4755859375	-177.6953277587891	-1046.763671875	1745.122802734375	-356.1245727539062	-1007.365417480469	1744.180541992188	-265.9739990234375	-1220.927734375	1722.819946289062	-307.2174377441406	-1155.509399414062	964.49462890625	-448.3862915039062	-1119.503540039062	963.8642578125	-75.69070434570312	-1021.924011230469	996.6333618164062	-154.0412445068359	-1036.1416015625	1012.52490234375	-388.8895568847656	-1118.444946289062	517.5885009765625	-397.3033142089844	-1138.968139648438	654.7932739257812	-433.5201416015625	-1214.019287109375	40.34159088134766	-391.6270751953125	-1199.1123046875	288.5397033691406	-413.2520446777344	-994.486328125	41.11199569702148	-322.5317687988281	-1054.588134765625	50.72108840942383	-306.433837890625	-1089.307495117188	39.46304702758789	-408.2332763671875	-1284.11474609375	47.91024780273438	-340.5011901855469	-1126.812255859375	525.12158203125	-123.9695663452148	-1101.135375976562	794.794677734375	-80.01089477539062	-1246.098876953125	45.50391006469727	-149.7481231689453	-1157.576049804688	404.6056213378906	-123.6311264038086	-1013.478393554688	45.53111267089844	-183.6565093994141	-1075.179931640625	50.85509490966797	-215.7519378662109	-1097.3037109375	44.96023559570312	-120.8366775512695	-1299.956787109375	47.41927337646484	-197.6994018554688	
3	0.02	-1238.28173828125	1069.9501953125	-172.5573425292969	-1247.0087890625	1064.532348632812	-336.0567932128906	-1249.712036132812	1127.162353515625	-261.4723815917969	-1030.495361328125	1328.88134765625	-265.7239379882812	-1278.035522460938	1268.10791015625	-260.0421752929688	-1244.886352539062	1537.873901367188	-273.4478149414062	-1079.404418945312	1452.9345703125	-270.3406982421875	-1285.409057617188	1399.962524414062	-190.5813598632812	-1261.538696289062	1495.104248046875	-370.3168029785156	-1159.789916992188	1505.865844726562	-446.2138366699219	-1185.382446289062	1379.514526367188	-523.4778442382812	-1178.189208984375	1160.269897460938	-543.141845703125	-1236.984375	1149.10498046875	-455.0852966308594	-1091.605102539062	908.6055297851562	-480.2344360351562	-1167.46435546875	893.29736328125	-524.1331176757812	-1164.14404296875	1044.397216796875	-546.32470703125	-1064.928588867188	725.7454223632812	-456.5190124511719	-1133.260498046875	804.0523681640625	-520.7168579101562	-1067.364013671875	816.5181884765625	-491.4769897460938	-1160.5576171875	1530.513671875	-100.5018081665039	-1168.518798828125	1458.930297851562	-26.36556434631348	-1192.728149414062	1188.734497070312	-2.625320434570312	-1197.844970703125	1160.842895507812	-99.24372100830078	-1059.054809570312	931.9174194335938	-36.86403274536133	-1122.811401367188	916.9351196289062	29.43004608154297	-1176.931762695312	1113.763671875	12.21437168121338	-1039.483642578125	747.212890625	-51.51256561279297	-1023.866088867188	822.7362670898438	-21.56577491760254	-1080.231201171875	817.4236450195312	28.76717185974121	-1157.907836914062	1717.539428710938	-177.7159576416016	-1046.475463867188	1745.075439453125	-356.0567626953125	-1007.1669921875	1744.08740234375	-265.8678283691406	-1220.661987304688	1722.939208984375	-307.2839965820312	-1155.508178710938	964.5394287109375	-448.4106750488281	-1119.473022460938	963.8717041015625	-75.70449829101562	-1021.953918457031	996.6424560546875	-154.00341796875	-1036.160522460938	1012.515441894531	-388.8606872558594	-1118.5302734375	517.599365234375	-397.4118347167969	-1139.06591796875	654.8301391601562	-433.6011352539062	-1214.040283203125	40.2621955871582	-391.7163696289062	-1199.172241210938	288.5437622070312	-413.3150329589844	-994.541748046875	41.15571975708008	-322.564208984375	-1054.636352539062	50.75032424926758	-306.4822387695312	-1089.309326171875	39.43433380126953	-408.2869567871094	-1284.1279296875	47.88882446289062	-340.5730285644531	-1126.8427734375	525.1450805664062	-123.9112930297852	-1101.168823242188	794.8228149414062	-79.9725341796875	-1246.0888671875	45.48595809936523	-149.7024383544922	-1157.587036132812	404.6321411132812	-123.5389022827148	-1013.475830078125	45.54210662841797	-183.6497497558594	-1075.193969726562	50.87532806396484	-215.7409057617188	-1097.306518554688	44.95495223999023	-120.8272018432617	-1299.964233398438	47.41601943969727	-197.6725158691406	
4	0.03	-1238.330322265625	1070.009521484375	-172.5427703857422	-1247.012084960938	1064.583618164062	-336.0445861816406	-1249.74267578125	1127.241577148438	-261.4867553710938	-1030.436767578125	1328.885131835938	-265.6821594238281	-1277.958251953125	1268.18115234375	-260.0453491210938	-1244.731201171875	1537.925170898438	-273.4774780273438	-1079.281005859375	1452.963256835938	-270.3117065429688	-1285.323608398438	1400.03125	-190.5956878662109	-1261.371215820312	1495.205444335938	-370.3319702148438	-1159.660766601562	1505.901245117188	-446.1878356933594	-1185.212280273438	1379.575317382812	-523.4739990234375	-1178.105224609375	1160.314697265625	-543.1598510742188	-1236.854858398438	1149.159301757812	-455.1106567382812	-1091.514404296875	908.6432495117188	-480.2083435058594	-1167.302612304688	893.335205078125	-524.13671875	-1164.033447265625	1044.457763671875	-546.33544921875	-1064.809936523438	725.7828369140625	-456.4904174804688	-1133.139404296875	804.0977172851562	-520.7047119140625	-1067.179809570312	816.6087646484375	-491.4524841308594	-1160.464233398438	1530.564086914062	-100.4942855834961	-1168.471069335938	1458.963500976562	-26.35998916625977	-1192.695068359375	1188.773071289062	-2.623352527618408	-1197.782104492188	1160.878540039062	-99.2386474609375	-1059.035766601562	931.9569702148438	-36.86215972900391	-1122.754760742188	916.9701538085938	29.4370002746582	-1176.914916992188	1113.801635742188	12.21134090423584	-1039.361206054688	747.246826171875	-51.47688674926758	-1023.668212890625	822.8541870117188	-21.52172660827637	-1080.151489257812	817.4649047851562	28.79897308349609	-1157.82275390625	1717.61572265625	-177.7454986572266	-1046.122802734375	1745.013549804688	-355.9729919433594	-1006.928100585938	1743.977172851562	-265.7308959960938	-1220.3515625	1723.076782226562	-307.3759765625	-1155.513916015625	964.5919799804688	-448.431396484375	-1119.457763671875	963.8798828125	-75.69949340820312	-1021.989990234375	996.6490478515625	-153.9578399658203	-1036.186645507812	1012.504089355469	-388.8229675292969	-1118.627319335938	517.6113891601562	-397.5347595214844	-1139.182006835938	654.8739013671875	-433.6929016113281	-1214.067260742188	40.16823196411133	-391.8206787109375	-1199.247802734375	288.5506286621094	-413.3888244628906	-994.6094970703125	41.2097053527832	-322.6048583984375	-1054.694091796875	50.78651428222656	-306.5405578613281	-1089.311279296875	39.40035247802734	-408.3492126464844	-1284.145751953125	47.86564636230469	-340.6580505371094	-1126.874755859375	525.1748046875	-123.8463134765625	-1101.20703125	794.8556518554688	-79.92363739013672	-1246.077880859375	45.466796875	-149.6520690917969	-1157.59033203125	404.6587524414062	-123.4392852783203	-1013.4736328125	45.55599212646484	-183.6412811279297	-1075.208862304688	50.89727020263672	-215.7287139892578	-1097.310791015625	44.94873809814453	-120.8154220581055	-1299.974853515625	47.41511535644531	-197.6420440673828	
